<svg xmlns="http://www.w3.org/2000/svg" width="166" height="166" viewBox="0 0 166 166">
  <g id="Group_349" data-name="Group 349" transform="translate(-779.74 -1522.387)">
    <rect id="Rectangle_67" data-name="Rectangle 67" width="166" height="166" rx="30" transform="translate(779.74 1522.387)" fill="#b8b8d9"/>
    <path id="Rectangle_281" data-name="Rectangle 281" d="M10,0H156a10,10,0,0,1,10,10v7a30,30,0,0,1-30,30H30A30,30,0,0,1,0,17V10A10,10,0,0,1,10,0Z" transform="translate(779.74 1641.387)" fill="#9b9bba"/>
    <g id="Group_348" data-name="Group 348">
      <g id="Rectangle_270" data-name="Rectangle 270" transform="translate(920 1561) rotate(90)" fill="#ffda76" stroke="#707070" stroke-width="6">
        <rect width="74" height="115" rx="12" stroke="none"/>
        <rect x="3" y="3" width="68" height="109" rx="9" fill="none"/>
      </g>
      <rect id="Rectangle_271" data-name="Rectangle 271" width="62" height="69" rx="6" transform="translate(914 1567) rotate(90)" fill="#fff"/>
      <rect id="Rectangle_272" data-name="Rectangle 272" width="13" height="14" rx="4" transform="translate(864 1572) rotate(90)" fill="#e6e6e6"/>
      <rect id="Rectangle_273" data-name="Rectangle 273" width="38" height="5" rx="2.5" transform="translate(907 1581) rotate(-180)" fill="#e6e6e6" opacity="0.5"/>
      <rect id="Rectangle_275" data-name="Rectangle 275" width="18" height="5" rx="2.5" transform="translate(837 1581) rotate(-180)" fill="#fff" opacity="0.62"/>
      <rect id="Rectangle_280" data-name="Rectangle 280" width="18" height="5" rx="2.5" transform="translate(837 1606) rotate(-180)" fill="#fff" opacity="0.62"/>
      <rect id="Rectangle_276" data-name="Rectangle 276" width="18" height="5" rx="2.5" transform="translate(837 1589) rotate(-180)" fill="#fff" opacity="0.62"/>
      <rect id="Rectangle_279" data-name="Rectangle 279" width="18" height="5" rx="2.5" transform="translate(837 1614) rotate(-180)" fill="#fff" opacity="0.62"/>
      <rect id="Rectangle_277" data-name="Rectangle 277" width="18" height="5" rx="2.5" transform="translate(837 1597) rotate(-180)" fill="#fff" opacity="0.62"/>
      <rect id="Rectangle_278" data-name="Rectangle 278" width="18" height="5" rx="2.5" transform="translate(837 1622) rotate(-180)" fill="#fff" opacity="0.62"/>
      <line id="Line_10" data-name="Line 10" x2="28" transform="translate(848.5 1649.5)" fill="none" stroke="#707070" stroke-linecap="round" stroke-width="7"/>
      <line id="Line_11" data-name="Line 11" y1="14" transform="translate(862.5 1634.5)" fill="none" stroke="#707070" stroke-linecap="round" stroke-width="7"/>
    </g>
  </g>
</svg>
