<svg xmlns="http://www.w3.org/2000/svg" width="1521" height="1506" viewBox="0 0 1521 1506">
  <g id="Group_346" data-name="Group 346" transform="translate(-970 93)">
    <path id="Polygon_2" data-name="Polygon 2" d="M1009.078,0A214,214,0,0,1,1200.1,117.536l272.184,539a214,214,0,0,1,0,192.928l-272.184,539A214,214,0,0,1,1009.078,1506H511.922A214,214,0,0,1,320.9,1388.464l-272.184-539a214,214,0,0,1,0-192.928l272.184-539A214,214,0,0,1,511.922,0Z" transform="translate(970 -93)" fill="#3f92d8" opacity="0.5"/>
    <rect id="Rectangle_3" data-name="Rectangle 3" width="276.803" height="548.114" rx="36" transform="translate(1081.854 665.811) rotate(-27)" fill="rgba(63,146,216,0.48)"/>
    <rect id="Rectangle_16" data-name="Rectangle 16" width="276.803" height="595.494" rx="36" transform="translate(1267.719 373.328) rotate(-27)" fill="#70aee2"/>
    <rect id="Rectangle_31" data-name="Rectangle 31" width="530.729" height="299.075" rx="36" transform="translate(1547.83 923.08) rotate(-27)" fill="#70aee2"/>
    <rect id="Rectangle_43" data-name="Rectangle 43" width="530.729" height="299.075" rx="36" transform="translate(1668.197 502.649) rotate(-27)" fill="#70aee2"/>
    <rect id="Rectangle_5" data-name="Rectangle 5" width="254.995" height="356.489" rx="29" transform="translate(1096.52 670.576) rotate(-27)" fill="rgba(63,146,216,0.49)"/>
    <rect id="Rectangle_4" data-name="Rectangle 4" width="254.995" height="406.817" rx="29" transform="translate(1150.767 777.041) rotate(-27)" fill="#fff"/>
    <rect id="Rectangle_18" data-name="Rectangle 18" width="254.995" height="573.685" rx="29" transform="translate(1282.385 378.094) rotate(-27)" fill="#fff"/>
    <rect id="Rectangle_32" data-name="Rectangle 32" width="508.914" height="278.12" rx="29" transform="translate(1562.305 927.462) rotate(-27)" fill="#fff"/>
    <rect id="Rectangle_44" data-name="Rectangle 44" width="508.914" height="278.12" rx="29" transform="translate(1682.672 507.031) rotate(-27)" fill="#fff"/>
    <rect id="Rectangle_29" data-name="Rectangle 29" width="254.995" height="241.521" rx="29" transform="translate(1433.184 674.054) rotate(-27)" fill="#8bcaff"/>
    <rect id="Rectangle_6" data-name="Rectangle 6" width="140.079" height="30.197" rx="10" transform="translate(1591.21 939.223) rotate(-27)" fill="#b8b8d9"/>
    <rect id="Rectangle_50" data-name="Rectangle 50" width="31.079" height="30.197" rx="10" transform="translate(1711.576 518.792) rotate(-27)" fill="#81d1c7"/>
    <rect id="Rectangle_55" data-name="Rectangle 55" width="20.079" height="19.197" rx="5" transform="translate(1730.964 557.173) rotate(-27)" fill="#ebebeb"/>
    <rect id="Rectangle_56" data-name="Rectangle 56" width="20.079" height="19.197" rx="5" transform="translate(1743.138 581.273) rotate(-27)" fill="#ebebeb"/>
    <rect id="Rectangle_57" data-name="Rectangle 57" width="20.079" height="19.197" rx="5" transform="translate(1755.312 605.373) rotate(-27)" fill="#ebebeb"/>
    <rect id="Rectangle_58" data-name="Rectangle 58" width="20.079" height="19.197" rx="5" transform="translate(1767.485 629.473) rotate(-27)" fill="#ebebeb"/>
    <rect id="Rectangle_59" data-name="Rectangle 59" width="20.079" height="19.197" rx="5" transform="translate(1779.659 653.573) rotate(-27)" fill="#ebebeb"/>
    <rect id="Rectangle_21" data-name="Rectangle 21" width="140.079" height="30.197" rx="10" transform="translate(1311.313 386.83) rotate(-27)" fill="#f2f2f2"/>
    <rect id="Rectangle_28" data-name="Rectangle 28" width="178.664" height="30.197" rx="10" transform="translate(1403.087 566.947) rotate(-27)" fill="#f2f2f2"/>
    <rect id="Rectangle_36" data-name="Rectangle 36" width="178.664" height="30.197" rx="10" transform="translate(1626.484 1009.795) rotate(-27)" fill="#f2f2f2"/>
    <rect id="Rectangle_7" data-name="Rectangle 7" width="140.079" height="7.549" rx="3.775" transform="translate(1200.872 827.339) rotate(-27)" fill="#f8f8f8"/>
    <rect id="Rectangle_33" data-name="Rectangle 33" width="38.079" height="7.549" rx="3.775" transform="translate(1770.887 860.132) rotate(-27)" fill="#e0e0e0"/>
    <rect id="Rectangle_51" data-name="Rectangle 51" width="38.079" height="7.549" rx="3.775" transform="translate(1789.057 492.445) rotate(-27)" fill="#e0e0e0"/>
    <rect id="Rectangle_60" data-name="Rectangle 60" width="38.079" height="7.549" rx="3.775" transform="translate(1758.433 549.367) rotate(-27)" fill="#f0f0f0"/>
    <rect id="Rectangle_61" data-name="Rectangle 61" width="38.079" height="7.549" rx="3.775" transform="translate(1770.606 573.467) rotate(-27)" fill="#f0f0f0"/>
    <rect id="Rectangle_62" data-name="Rectangle 62" width="38.079" height="7.549" rx="3.775" transform="translate(1782.78 597.566) rotate(-27)" fill="#f0f0f0"/>
    <rect id="Rectangle_63" data-name="Rectangle 63" width="38.079" height="7.549" rx="3.775" transform="translate(1794.954 621.667) rotate(-27)" fill="#f0f0f0"/>
    <rect id="Rectangle_64" data-name="Rectangle 64" width="38.079" height="7.549" rx="3.775" transform="translate(1807.127 645.767) rotate(-27)" fill="#f0f0f0"/>
    <rect id="Rectangle_34" data-name="Rectangle 34" width="38.079" height="7.549" rx="3.775" transform="translate(1823.457 833.346) rotate(-27)" fill="#e0e0e0"/>
    <rect id="Rectangle_8" data-name="Rectangle 8" width="140.079" height="7.549" rx="3.775" transform="translate(1206.583 838.55) rotate(-27)" fill="#f8f8f8"/>
    <rect id="Rectangle_23" data-name="Rectangle 23" width="140.079" height="12.75" rx="6.375" transform="translate(1430.251 620.26) rotate(-27)" fill="#f8f8f8"/>
    <rect id="Rectangle_37" data-name="Rectangle 37" width="140.079" height="12.75" rx="6.375" transform="translate(1645.022 1046.179) rotate(-27)" fill="#f8f8f8"/>
    <rect id="Rectangle_38" data-name="Rectangle 38" width="140.079" height="12.75" rx="6.375" transform="translate(1654.103 1063.999) rotate(-27)" fill="#f8f8f8"/>
    <rect id="Rectangle_9" data-name="Rectangle 9" width="89.751" height="7.549" rx="3.775" transform="translate(1212.677 850.508) rotate(-27)" fill="#f8f8f8"/>
    <rect id="Rectangle_10" data-name="Rectangle 10" width="59.555" height="59.555" rx="11" transform="translate(1232.859 890.119) rotate(-27)" fill="#ff9393"/>
    <rect id="Rectangle_40" data-name="Rectangle 40" width="112.555" height="112.555" rx="56" transform="translate(1840.717 900.263) rotate(-27)" fill="#ffa5a5"/>
    <rect id="Rectangle_24" data-name="Rectangle 24" width="82.419" height="121.754" rx="11" transform="translate(1331.143 429.445) rotate(-27)" fill="#ffa5a5"/>
    <rect id="Rectangle_11" data-name="Rectangle 11" width="59.555" height="59.555" rx="11" transform="translate(1264.466 952.151) rotate(-27)" fill="#81d1c7"/>
    <rect id="Rectangle_25" data-name="Rectangle 25" width="82.419" height="121.754" rx="11" transform="translate(1418.025 385.176) rotate(-27)" fill="#81d1c7"/>
    <rect id="Rectangle_12" data-name="Rectangle 12" width="59.555" height="59.555" rx="11" transform="translate(1296.454 1014.93) rotate(-27)" fill="#9d9dde"/>
    <path id="Rectangle_26" data-name="Rectangle 26" d="M11,0H39.641a0,0,0,0,1,0,0V121.754a0,0,0,0,1,0,0H11a11,11,0,0,1-11-11V11A11,11,0,0,1,11,0Z" transform="translate(1504.907 340.907) rotate(-27)" fill="#9d9dde"/>
    <rect id="Rectangle_13" data-name="Rectangle 13" width="57.038" height="18.454" rx="9" transform="translate(1395.762 853.245) rotate(-27)" fill="#faca00"/>
    <rect id="Rectangle_39" data-name="Rectangle 39" width="57.038" height="18.454" rx="9" transform="translate(1675.364 1100.228) rotate(-27)" fill="#faca00"/>
    <rect id="Rectangle_30" data-name="Rectangle 30" width="214.732" height="36.907" rx="14" transform="translate(1533.987 827.061) rotate(-27)" fill="#fff"/>
    <rect id="Rectangle_14" data-name="Rectangle 14" width="57.038" height="18.454" rx="9" transform="translate(1427.369 915.276) rotate(-27)" fill="#faca00"/>
    <rect id="Rectangle_15" data-name="Rectangle 15" width="57.038" height="18.454" rx="9" transform="translate(1459.357 978.056) rotate(-27)" fill="#faca00"/>
    <rect id="Rectangle_22" data-name="Rectangle 22" width="101.495" height="11.072" rx="5.536" transform="translate(1589.899 813.492) rotate(-27)" fill="#e6e6e6"/>
    <rect id="Rectangle_41" data-name="Rectangle 41" width="112.555" height="112.555" rx="56" transform="translate(1835.291 969.477) rotate(-27)" fill="#81d1c7"/>
    <path id="Rectangle_65" data-name="Rectangle 65" d="M19,0H206.995a19,19,0,0,1,19,19V210.521a0,0,0,0,1,0,0H0a0,0,0,0,1,0,0V19A19,19,0,0,1,19,0Z" transform="translate(1809.551 518.668) rotate(-27)" fill="#faca00"/>
    <rect id="Rectangle_52" data-name="Rectangle 52" width="38.079" height="7.549" rx="3.775" transform="translate(1841.626 465.659) rotate(-27)" fill="#e0e0e0"/>
    <rect id="Rectangle_35" data-name="Rectangle 35" width="38.079" height="7.549" rx="3.775" transform="translate(1876.026 806.561) rotate(-27)" fill="#e0e0e0"/>
    <rect id="Rectangle_53" data-name="Rectangle 53" width="38.079" height="7.549" rx="3.775" transform="translate(1894.196 438.874) rotate(-27)" fill="#e0e0e0"/>
  </g>
</svg>
