<svg width="9" height="9" xmlns="http://www.w3.org/2000/svg" xmlns:xlink="http://www.w3.org/1999/xlink" xmlns:svgjs="http://svgjs.com/svgjs" fill="#142850"><svg xmlns="http://www.w3.org/2000/svg" width="9" height="9" viewBox="0.826 0.663 7.987 7.987"><path paint-order="stroke fill markers" fill-rule="evenodd" d="M3.044.663A2.219 2.219 0 0 0 .826 2.88v3.55c0 1.225.993 2.219 2.218 2.219h3.55A2.219 2.219 0 0 0 8.813 6.43v-3.55A2.218 2.218 0 0 0 6.594.663h-3.55zm4.438.887c.244 0 .443.2.443.444s-.2.444-.443.444a.445.445 0 0 1-.444-.444c0-.244.2-.444.444-.444zm-2.663.888a2.219 2.219 0 1 1 0 4.437 2.219 2.219 0 0 1 0-4.437zm0 .887a1.332 1.332 0 1 0 .001 2.663 1.332 1.332 0 0 0 0-2.663z"/></svg></svg>