<svg width="9" height="9" xmlns="http://www.w3.org/2000/svg" xmlns:xlink="http://www.w3.org/1999/xlink" xmlns:svgjs="http://svgjs.com/svgjs" fill="#142850"><svg xmlns="http://www.w3.org/2000/svg" width="9" height="9" viewBox="0.25 0.701 7.949 7.949"><path paint-order="stroke fill markers" fill-rule="evenodd" d="M6.543.701H1.906C.991.701.25 1.442.25 2.357v4.637c0 .914.741 1.656 1.656 1.656h4.637c.914 0 1.656-.742 1.656-1.656V2.357C8.199 1.442 7.457.7 6.543.7zM2.9 6.994h-.994V3.35H2.9v3.643zM2.403 2.93a.582.582 0 0 1-.58-.585c0-.322.26-.584.58-.584.32 0 .58.262.58.584 0 .323-.26.585-.58.585zm4.47 4.063H5.88V5.138c0-1.116-1.325-1.031-1.325 0v1.856h-.993V3.35h.993v.584c.463-.856 2.319-.92 2.319.82v2.239z"/></svg></svg>